<?xml version="1.0" encoding="utf-8"?>
<!-- Generator: Adobe Illustrator 24.0.0, SVG Export Plug-In . SVG Version: 6.00 Build 0)  -->
<svg version="1.1" xmlns="http://www.w3.org/2000/svg" xmlns:xlink="http://www.w3.org/1999/xlink" x="0px" y="0px"
	 viewBox="0 0 828.05 357.41" style="enable-background:new 0 0 828.05 357.41;" xml:space="preserve">
<style type="text/css">
	.st0{display:none;}
	.st1{fill:#FCFCFC;}
</style>
<g id="negativo">
	<g>
		<g>
			<path d="M213.47,100c-6.37,14.59,5.86,28.12,18.18,34.39c14.22,7.23,31.96,6.18,46.86,1.71c33.44-10.04,56.88-38.07,66.28-71.02
				c2.53-8.88,4.11-18.02,4.9-27.21c0.37-4.39,0.55-8.79,0.57-13.2c0.01-1.89-0.01-3.79-0.06-5.68c-0.07-2.44-0.22-3.28-2.4-4.35
				c-5.85-2.87-12.76,0.25-17.34,4.09c-6.81,5.7-10.3,13.99-14.1,21.78c-17.83,36.57-32.38,74.71-51.65,110.58
				c-34.41,64.05-86.43,117.93-149.68,153.92c-17.16,9.77-35.54,19.43-55.28,22.44c-9.92,1.51-20.7,1.31-30.16-2.41
				c-7.18-2.82-14.84-8.5-15.47-16.83c-0.69-9.25,7.7-15.78,14.93-19.8c8.9-4.94,18.55-8.64,28.28-11.55
				c19.05-5.7,38.82-8.38,58.51-10.7c21.43-2.53,42.87-4.94,64.31-7.4c21.18-2.43,42.48-4.42,63.55-7.7
				c34.39-5.36,70.55-16.71,92.59-45.48c4.76-6.22,8.53-13.1,11.22-20.46c0.77-2.1-4.54-0.8-5.21-0.08
				c-9.39,10.09-16.46,22.04-20.58,35.21c-3.76,12.03-6.15,27.01-2.89,39.45c1.3,4.97,4.23,9.64,9.55,10.85
				c6.01,1.37,12.09-1.69,16.58-5.45c10.33-8.63,18.13-21.74,23.83-33.75c3.18-6.7,5.78-13.66,7.72-20.81
				c1.78-6.55,3.7-13.85,3.51-20.69c-0.3-11.01-10.72-14.12-20.07-13.11c-5.24,0.56-10.46,2.15-15.22,4.39
				c-4.64,2.18-10.62,5.18-12.45,10.35c-3.68,10.41,11.55,14.65,18.92,14.98c13.38,0.59,29.89-3.38,39.96-12.57
				c9.2-8.4,13.28-23.6,4.81-33.88c-1.03,0.9-2.06,1.8-3.1,2.7c24.26-2.42,48.51-4.84,72.77-7.26c-0.46-0.8-0.92-1.6-1.39-2.41
				c-14.64,9.9-27.95,21.56-39.58,34.88c-5.97,6.84-11.66,14.09-16.48,21.78c-3.73,5.95-7.15,13.26-6.26,20.47
				c2.06,16.73,23.46,12.97,34.1,8.28c12.75-5.62,22.75-15.71,30.31-27.24c9.38-14.28,15.49-30.49,20.97-46.58
				c0.63-1.84-3.42-1.05-4.03-0.79c-16.71,7.12-29.7,21.79-34.33,39.43c-2.21,8.42-2.99,18.65,0.87,26.72
				c3.82,7.97,11.94,11.24,20.42,10.24c9.64-1.13,17.33-7,23.41-14.23c7.41-8.81,13.72-18.69,20.3-28.12
				c13.94-20.01,27.49-40.3,40.63-60.85c15.06-23.54,29.57-47.43,43.56-71.63c1.4-2.42-4.11-1.46-5.01-0.5
				c-21.02,22.29-39.88,46.55-56.17,72.51c-8.09,12.89-15.54,26.19-22.31,39.81c-3.35,6.75-6.56,13.57-9.58,20.47
				c-2.97,6.8-5.82,13.98-5.26,21.55c0.91,12.28,12.4,20.14,23.91,15.23c6.17-2.63,10.72-7.88,15.23-12.63
				c5.18-5.46,10.3-10.99,15.34-16.58c21.26-23.57,41.2-48.33,59.73-74.11c20.74-28.86,39.65-59.01,56.67-90.21
				c1.37-2.51-4.11-1.38-5.01-0.5c-22.96,22.4-43.83,46.91-62.17,73.24c-18,25.85-34.74,53.76-46.78,82.94
				c-3.83,9.28-7.46,23.54,0.25,31.91c9.79,10.62,25.49,2.2,34.33-5.08c13.94-11.47,26.99-24.23,40.3-36.42
				c13.02-11.92,26.04-23.86,38.86-35.99c25.44-24.07,50.09-50,64.37-82.45c0.07-0.29,0-0.54-0.2-0.75
				c-3.42-4.35-9.61-2.93-13.88-0.69c-5.96,3.12-10.16,8.89-14.36,13.96c-10.04,12.13-18.98,25.12-27.44,38.39
				c-16.97,26.62-32.05,54.49-50.83,79.92c-19.43,26.32-43.37,48.1-70.58,66.17c-27.57,18.3-57.53,34.31-88.26,46.59
				c-16.28,6.5-33.18,11.73-50.59,14.1c-16.27,2.22-34.48,2.53-50.25-2.75c-11.19-3.75-25.14-12.97-21.94-26.71
				c1.8-7.73,8.53-13.19,14.86-17.34c6.81-4.47,14.03-8.31,21.46-11.64c29.99-13.44,62.8-18.59,94.8-24.92
				c34.78-6.87,69.35-14.75,103.66-23.67c68.6-17.84,136.14-39.76,202.14-65.61c8.19-3.21,16.35-6.48,24.5-9.81
				c3.74-1.53,0.33-3.39-2.27-2.32c-48.84,19.95-98.55,37.76-148.98,53.29c-50.44,15.53-101.56,28.83-153.18,39.82
				c-46.53,9.91-96.78,14.74-138.73,38.91c-8.41,4.85-18.04,10.63-22.45,19.69c-3.98,8.18-1.71,16.97,4.59,23.21
				c6.48,6.42,15.52,10.05,24.32,11.87c11.61,2.4,23.53,2.99,35.35,2.25c24.83-1.56,48.97-9.17,71.75-18.85
				c22.26-9.46,43.92-20.77,64.72-33.12c20.43-12.13,40.07-25.83,57.54-41.99c17.1-15.82,31.48-34.08,44.34-53.45
				c12.81-19.29,24.26-39.44,36.56-59.05c6.25-9.97,12.72-19.8,19.69-29.28c3.41-4.64,6.94-9.19,10.61-13.63
				c3.49-4.22,7.17-9.78,12.23-12.19c1.16-0.55,3.05-1.28,4.11-0.09c1.05,1.18-0.1,2.74-0.72,4.07c-1.34,2.88-2.79,5.7-4.31,8.49
				c-2.76,5.05-5.78,9.95-9.01,14.71c-6.63,9.76-14.12,18.91-22.06,27.62c-16.57,18.18-34.99,34.65-53.06,51.3
				c-10.07,9.28-20.18,18.53-30.33,27.73c-4.98,4.52-9.96,9.02-14.96,13.52c-4.69,4.22-9.33,8.67-14.96,11.63
				c-10.92,5.74-19.92-1.79-20.3-13.02c-0.34-10.07,4.14-19.48,8.31-28.36c20.39-43.33,47.13-83.7,78.94-119.49
				c7.9-8.89,16.13-17.46,24.64-25.76c-1.67-0.17-3.34-0.33-5.01-0.5c-28.03,51.37-61.24,99.87-99.09,144.52
				c-9.53,11.24-19.35,22.24-29.45,32.97c-4.45,4.73-9.63,11.99-16.05,14.06c-6.97,2.24-12.72-4.83-14.43-10.8
				c-2.06-7.15,0.46-14.76,3.18-21.37c2.85-6.92,6.06-13.72,9.35-20.44c6.18-12.63,12.95-24.98,20.27-37
				c16.81-27.62,36.51-53.47,58.69-76.99c-1.67-0.17-3.34-0.33-5.01-0.5c-21.74,37.62-44.77,74.48-69.09,110.48
				c-6.12,9.05-12.31,18.05-18.59,26.99c-5.68,8.1-11.11,16.65-17.64,24.1c-6.35,7.25-16.85,14.14-26.31,7.96
				c-7.79-5.09-8.74-16.02-7.83-24.43c2.05-19.09,14.52-36.7,32.26-44.26c-1.34-0.26-2.69-0.53-4.03-0.79
				c-8.04,23.64-17.94,50.95-39.26,65.91c-9.01,6.33-31.65,15.34-34.45-2.15c-1.14-7.11,2.65-14.55,6.4-20.31
				c4.14-6.37,8.78-12.46,13.67-18.27c11.57-13.73,25.08-25.8,39.96-35.85c2.06-1.4,0.58-2.6-1.39-2.41
				c-24.26,2.42-48.51,4.84-72.77,7.26c-0.89,0.09-4.3,1.23-3.1,2.7c6.36,7.72,4.92,18.89-0.55,26.71
				c-6.59,9.41-18.58,12.6-29.4,13.83c-6.76,0.76-21.67,0.66-22.97-8.74c-1.24-8.99,15.25-13.65,21.95-14.2
				c3.8-0.32,8,0.15,10.98,2.75c3.88,3.38,3.87,8.62,3.24,13.33c-1.45,11.01-4.55,21.83-8.96,32.01
				c-4.52,10.46-10.55,20.28-17.79,29.06c-3.56,4.32-10.3,13.22-16.74,9.85c-4.2-2.2-5.71-7.46-6.36-11.81
				c-3.67-24.5,6.32-51.21,22.93-69.08c-1.74-0.03-3.48-0.06-5.21-0.08c-12.6,34.44-47.77,51.88-81.5,59.17
				c-19.87,4.3-40.24,6.09-60.41,8.41c-21.47,2.47-42.94,4.94-64.41,7.4c-37.09,4.26-76.66,7.33-109.94,25.9
				c-6.03,3.37-12.21,7.83-15.36,14.17c-3.24,6.52-1.85,13.7,2.97,19.02c10.94,12.1,30.9,12.93,45.86,10.66
				c18.2-2.76,35.16-10.65,51.25-19.27c15.07-8.08,29.58-17.19,43.45-27.19c27.9-20.11,53.12-43.87,74.87-70.51
				c23.35-28.61,41.56-60.39,57.17-93.77c8.42-17.99,16.25-36.26,24.42-54.36c4.18-9.24,8.44-18.45,12.93-27.55
				c1.95-3.96,3.78-8.09,6.27-11.76c2.29-3.39,5.95-8.21,10.18-9.21c6.28-1.49,5.02,6.62,4.96,10.41c-0.07,4.63-0.33,9.25-0.8,13.85
				c-0.89,8.74-2.52,17.41-5.02,25.84c-5.12,17.28-14,33.72-27.17,46.2c-12.41,11.77-28.27,20.3-45.36,22.47
				c-16.33,2.07-34.05-2.02-44.14-16.02c-4.42-6.14-5.78-13.44-2.71-20.47C220.02,97.52,214.28,98.14,213.47,100L213.47,100z"/>
		</g>
	</g>
	<g>
		<g>
			<path d="M449.65,147.15c24.59-1.18,49.17-2.75,73.71-4.71c24.54-1.96,49.06-4.31,73.52-7.05c24.35-2.72,48.65-5.83,72.9-9.32
				c24.37-3.51,48.68-7.4,72.93-11.68c24.27-4.28,48.47-8.93,72.6-13.97c2.98-0.62,5.96-1.25,8.94-1.89
				c1.08-0.23,2.73-1.29,2.41-2.6c-0.34-1.39-2.37-1.26-3.39-1.05c-23.96,5.1-48,9.83-72.11,14.18
				c-24.09,4.34-48.25,8.29-72.46,11.86c-24.24,3.58-48.53,6.77-72.87,9.58s-48.72,5.24-73.13,7.28
				c-24.41,2.04-48.86,3.7-73.33,4.97c-3.04,0.16-6.09,0.31-9.13,0.46c-1.19,0.06-3.06,0.88-3.22,2.23
				C446.85,146.89,448.6,147.2,449.65,147.15L449.65,147.15z"/>
		</g>
	</g>
</g>
<g id="positivo">
	<rect x="-14.81" y="-7.41" class="st0" width="848.15" height="379.63"/>
	<g>
		<g>
			<path class="st1" d="M213.47,100c-6.37,14.59,5.86,28.12,18.18,34.39c14.22,7.23,31.96,6.18,46.86,1.71
				c33.44-10.04,56.88-38.07,66.28-71.02c2.53-8.88,4.11-18.02,4.9-27.21c0.37-4.39,0.55-8.79,0.57-13.2
				c0.01-1.89-0.01-3.79-0.06-5.68c-0.07-2.44-0.22-3.28-2.4-4.35c-5.85-2.87-12.76,0.25-17.34,4.09
				c-6.81,5.7-10.3,13.99-14.1,21.78c-17.83,36.57-32.38,74.71-51.65,110.58c-34.41,64.05-86.43,117.93-149.68,153.92
				c-17.16,9.77-35.54,19.43-55.28,22.44c-9.92,1.51-20.7,1.31-30.16-2.41c-7.18-2.82-14.84-8.5-15.47-16.83
				c-0.69-9.25,7.7-15.78,14.93-19.8c8.9-4.94,18.55-8.64,28.28-11.55c19.05-5.7,38.82-8.38,58.51-10.7
				c21.43-2.53,42.87-4.94,64.31-7.4c21.18-2.43,42.48-4.42,63.55-7.7c34.39-5.36,70.55-16.71,92.59-45.48
				c4.76-6.22,8.53-13.1,11.22-20.46c0.77-2.1-4.54-0.8-5.21-0.08c-9.39,10.09-16.46,22.04-20.58,35.21
				c-3.76,12.03-6.15,27.01-2.89,39.45c1.3,4.97,4.23,9.64,9.55,10.85c6.01,1.37,12.09-1.69,16.58-5.45
				c10.33-8.63,18.13-21.74,23.83-33.75c3.18-6.7,5.78-13.66,7.72-20.81c1.78-6.55,3.7-13.85,3.51-20.69
				c-0.3-11.01-10.72-14.12-20.07-13.11c-5.24,0.56-10.46,2.15-15.22,4.39c-4.64,2.18-10.62,5.18-12.45,10.35
				c-3.68,10.41,11.55,14.65,18.92,14.98c13.38,0.59,29.89-3.38,39.96-12.57c9.2-8.4,13.28-23.6,4.81-33.88
				c-1.03,0.9-2.06,1.8-3.1,2.7c24.26-2.42,48.51-4.84,72.77-7.26c-0.46-0.8-0.92-1.6-1.39-2.41c-14.64,9.9-27.95,21.56-39.58,34.88
				c-5.97,6.84-11.66,14.09-16.48,21.78c-3.73,5.95-7.15,13.26-6.26,20.47c2.06,16.73,23.46,12.97,34.1,8.28
				c12.75-5.62,22.75-15.71,30.31-27.24c9.38-14.28,15.49-30.49,20.97-46.58c0.63-1.84-3.42-1.05-4.03-0.79
				c-16.71,7.12-29.7,21.79-34.33,39.43c-2.21,8.42-2.99,18.65,0.87,26.72c3.82,7.97,11.94,11.24,20.42,10.24
				c9.64-1.13,17.33-7,23.41-14.23c7.41-8.81,13.72-18.69,20.3-28.12c13.94-20.01,27.49-40.3,40.63-60.85
				c15.06-23.54,29.57-47.43,43.56-71.63c1.4-2.42-4.11-1.46-5.01-0.5c-21.02,22.29-39.88,46.55-56.17,72.51
				c-8.09,12.89-15.54,26.19-22.31,39.81c-3.35,6.75-6.56,13.57-9.58,20.47c-2.97,6.8-5.82,13.98-5.26,21.55
				c0.91,12.28,12.4,20.14,23.91,15.23c6.17-2.63,10.72-7.88,15.23-12.63c5.18-5.46,10.3-10.99,15.34-16.58
				c21.26-23.57,41.2-48.33,59.73-74.11c20.74-28.86,39.65-59.01,56.67-90.21c1.37-2.51-4.11-1.38-5.01-0.5
				c-22.96,22.4-43.83,46.91-62.17,73.24c-18,25.85-34.74,53.76-46.78,82.94c-3.83,9.28-7.46,23.54,0.25,31.91
				c9.79,10.62,25.49,2.2,34.33-5.08c13.94-11.47,26.99-24.23,40.3-36.42c13.02-11.92,26.04-23.86,38.86-35.99
				c25.44-24.07,50.09-50,64.37-82.45c0.07-0.29,0-0.54-0.2-0.75c-3.42-4.35-9.61-2.93-13.88-0.69
				c-5.96,3.12-10.16,8.89-14.36,13.96c-10.04,12.13-18.98,25.12-27.44,38.39c-16.97,26.62-32.05,54.49-50.83,79.92
				c-19.43,26.32-43.37,48.1-70.58,66.17c-27.57,18.3-57.53,34.31-88.26,46.59c-16.28,6.5-33.18,11.73-50.59,14.1
				c-16.27,2.22-34.48,2.53-50.25-2.75c-11.19-3.75-25.14-12.97-21.94-26.71c1.8-7.73,8.53-13.19,14.86-17.34
				c6.81-4.47,14.03-8.31,21.46-11.64c29.99-13.44,62.8-18.59,94.8-24.92c34.78-6.87,69.35-14.75,103.66-23.67
				c68.6-17.84,136.14-39.76,202.14-65.61c8.19-3.21,16.35-6.48,24.5-9.81c3.74-1.53,0.33-3.39-2.27-2.32
				c-48.84,19.95-98.55,37.76-148.98,53.29c-50.44,15.53-101.56,28.83-153.18,39.82c-46.53,9.91-96.78,14.74-138.73,38.91
				c-8.41,4.85-18.04,10.63-22.45,19.69c-3.98,8.18-1.71,16.97,4.59,23.21c6.48,6.42,15.52,10.05,24.32,11.87
				c11.61,2.4,23.53,2.99,35.35,2.25c24.83-1.56,48.97-9.17,71.75-18.85c22.26-9.46,43.92-20.77,64.72-33.12
				c20.43-12.13,40.07-25.83,57.54-41.99c17.1-15.82,31.48-34.08,44.34-53.45c12.81-19.29,24.26-39.44,36.56-59.05
				c6.25-9.97,12.72-19.8,19.69-29.28c3.41-4.64,6.94-9.19,10.61-13.63c3.49-4.22,7.17-9.78,12.23-12.19
				c1.16-0.55,3.05-1.28,4.11-0.09c1.05,1.18-0.1,2.74-0.72,4.07c-1.34,2.88-2.79,5.7-4.31,8.49c-2.76,5.05-5.78,9.95-9.01,14.71
				c-6.63,9.76-14.12,18.91-22.06,27.62c-16.57,18.18-34.99,34.65-53.06,51.3c-10.07,9.28-20.18,18.53-30.33,27.73
				c-4.98,4.52-9.96,9.02-14.96,13.52c-4.69,4.22-9.33,8.67-14.96,11.63c-10.92,5.74-19.92-1.79-20.3-13.02
				c-0.34-10.07,4.14-19.48,8.31-28.36c20.39-43.33,47.13-83.7,78.94-119.49c7.9-8.89,16.13-17.46,24.64-25.76
				c-1.67-0.17-3.34-0.33-5.01-0.5c-28.03,51.37-61.24,99.87-99.09,144.52c-9.53,11.24-19.35,22.24-29.45,32.97
				c-4.45,4.73-9.63,11.99-16.05,14.06c-6.97,2.24-12.72-4.83-14.43-10.8c-2.06-7.15,0.46-14.76,3.18-21.37
				c2.85-6.92,6.06-13.72,9.35-20.44c6.18-12.63,12.95-24.98,20.27-37c16.81-27.62,36.51-53.47,58.69-76.99
				c-1.67-0.17-3.34-0.33-5.01-0.5c-21.74,37.62-44.77,74.48-69.09,110.48c-6.12,9.05-12.31,18.05-18.59,26.99
				c-5.68,8.1-11.11,16.65-17.64,24.1c-6.35,7.25-16.85,14.14-26.31,7.96c-7.79-5.09-8.74-16.02-7.83-24.43
				c2.05-19.09,14.52-36.7,32.26-44.26c-1.34-0.26-2.69-0.53-4.03-0.79c-8.04,23.64-17.94,50.95-39.26,65.91
				c-9.01,6.33-31.65,15.34-34.45-2.15c-1.14-7.11,2.65-14.55,6.4-20.31c4.14-6.37,8.78-12.46,13.67-18.27
				c11.57-13.73,25.08-25.8,39.96-35.85c2.06-1.4,0.58-2.6-1.39-2.41c-24.26,2.42-48.51,4.84-72.77,7.26
				c-0.89,0.09-4.3,1.23-3.1,2.7c6.36,7.72,4.92,18.89-0.55,26.71c-6.59,9.41-18.58,12.6-29.4,13.83
				c-6.76,0.76-21.67,0.66-22.97-8.74c-1.24-8.99,15.25-13.65,21.95-14.2c3.8-0.32,8,0.15,10.98,2.75
				c3.88,3.38,3.87,8.62,3.24,13.33c-1.45,11.01-4.55,21.83-8.96,32.01c-4.52,10.46-10.55,20.28-17.79,29.06
				c-3.56,4.32-10.3,13.22-16.74,9.85c-4.2-2.2-5.71-7.46-6.36-11.81c-3.67-24.5,6.32-51.21,22.93-69.08
				c-1.74-0.03-3.48-0.06-5.21-0.08c-12.6,34.44-47.77,51.88-81.5,59.17c-19.87,4.3-40.24,6.09-60.41,8.41
				c-21.47,2.47-42.94,4.94-64.41,7.4c-37.09,4.26-76.66,7.33-109.94,25.9c-6.03,3.37-12.21,7.83-15.36,14.17
				c-3.24,6.52-1.85,13.7,2.97,19.02c10.94,12.1,30.9,12.93,45.86,10.66c18.2-2.76,35.16-10.65,51.25-19.27
				c15.07-8.08,29.58-17.19,43.45-27.19c27.9-20.11,53.12-43.87,74.87-70.51c23.35-28.61,41.56-60.39,57.17-93.77
				c8.42-17.99,16.25-36.26,24.42-54.36c4.18-9.24,8.44-18.45,12.93-27.55c1.95-3.96,3.78-8.09,6.27-11.76
				c2.29-3.39,5.95-8.21,10.18-9.21c6.28-1.49,5.02,6.62,4.96,10.41c-0.07,4.63-0.33,9.25-0.8,13.85
				c-0.89,8.74-2.52,17.41-5.02,25.84c-5.12,17.28-14,33.72-27.17,46.2c-12.41,11.77-28.27,20.3-45.36,22.47
				c-16.33,2.07-34.05-2.02-44.14-16.02c-4.42-6.14-5.78-13.44-2.71-20.47C220.02,97.52,214.28,98.14,213.47,100L213.47,100z"/>
		</g>
	</g>
	<g>
		<g>
			<path class="st1" d="M449.65,147.15c24.59-1.18,49.17-2.75,73.71-4.71c24.54-1.96,49.06-4.31,73.52-7.05
				c24.35-2.72,48.65-5.83,72.9-9.32c24.37-3.51,48.68-7.4,72.93-11.68c24.27-4.28,48.47-8.93,72.6-13.97
				c2.98-0.62,5.96-1.25,8.94-1.89c1.08-0.23,2.73-1.29,2.41-2.6c-0.34-1.39-2.37-1.26-3.39-1.05c-23.96,5.1-48,9.83-72.11,14.18
				c-24.09,4.34-48.25,8.29-72.46,11.86c-24.24,3.58-48.53,6.77-72.87,9.58s-48.72,5.24-73.13,7.28
				c-24.41,2.04-48.86,3.7-73.33,4.97c-3.04,0.16-6.09,0.31-9.13,0.46c-1.19,0.06-3.06,0.88-3.22,2.23
				C446.85,146.89,448.6,147.2,449.65,147.15L449.65,147.15z"/>
		</g>
	</g>
</g>
</svg>
